M48
;Layer_Color=9474304
;FILE_FORMAT=2:5
INCH,LZ
;TYPE=PLATED
T1F00S00C0.03937
%
T01
X0051181Y0054429
X0056102Y0051476
X0062008
X0066929Y0054429
X0070866Y0060335
Y006624
X0047244
Y0060335
X0125984Y0062008
Y0067913
X0129921Y0057087
X0134843Y0052165
X0140945
X0145866Y0057087
X0149803Y0062008
Y0067913
X020374Y0066929
X0206693Y0061024
X0209646Y0056102
X0213583Y0052165
X0219633
X022357Y0056102
X0226523Y0061024
X0229475Y0066929
X0284941Y006752
X0287205Y006191
X0289764Y0056004
X0295177Y0051968
X0300984Y0056004
X0303543Y006191
X0305807Y006752
X037441Y0055216
Y0048622
X0376378Y0043209
X038189Y0040059
X0387402Y0043209
X038937Y0048622
Y0055216
X0433465Y0055216
Y0048622
X0435433Y0043209
X0440945Y0040059
X0446457Y0043209
X0448425Y0048622
Y0055216
X049252Y0055216
Y0048622
X0494488Y0043209
X05Y0040059
X0505512Y0043209
X050748Y0048622
Y0055216
X0551575
X0552756Y0048819
X0553937Y0043307
X0559055Y0040059
X0564173Y0042913
X0565354Y0048819
X0566535Y0055216
X0566535Y0102362
X0566634Y0109449
X0551476
X0551575Y0102362
X0551575Y0157382
X0552756Y0163779
X0553937Y0169291
X0559055Y0172539
X0564173Y0169685
X0565354Y0163779
X0566535Y0157382
X0564173Y0224016
X0565354Y0229921
X0552756
X0553937Y0224409
X0559055Y0221161
X0505512Y0224311
X050748Y0229724
X049252
X0494488Y0224311
X05Y0221161
Y0172539
X0494488Y016939
X049252Y0163976
Y0157382
X050748
Y0163976
X0505512Y016939
X0446457Y016939
X0448425Y0163976
Y0157382
X0433465
Y0163976
X0435433Y016939
X0440945Y0172539
Y0221161
X0446457Y0224311
X0448425Y0229724
X0433465
X0435433Y0224311
X038937Y0229724
Y0163976
Y0157382
X0389469Y0109449
X038937Y0102362
X0433465
X0433366Y0109449
X0448524
X0448425Y0102362
X049252
X0492421Y0109449
X0507579
X050748Y0102362
X037441
X0374311Y0109449
X037441Y0157382
Y0163976
X0376378Y016939
X038189Y0172539
X0387402Y016939
Y0224311
X038189Y0221161
X0376378Y0224311
X037441Y0229724
X0305807Y0224902
X0303543Y0219291
X0300984Y0213386
X0295177Y020935
X0289764Y0213386
X0287205Y0219291
X0284941Y0224902
X0289764Y0180413
X0287205Y0174508
X0284941Y0168898
X0305807
X0303543Y0174508
X0300984Y0180413
X0295177Y0184449
X0283858Y0122047
X028376Y0114961
X0306791
X0306693Y0122047
X0227953
X0228051Y0114961
X020502
X0205118Y0122047
X0204724Y0168307
X0206693Y0174213
X0209646Y0179134
X0213583Y0184055
X0219633
X022357Y0179134
X0226523Y0174213
X0228491Y0168307
X0219633Y0209646
X0213583
X0209646Y0213583
X0206693Y0218504
X020374Y0224409
X0229475
X0226523Y0218504
X022357Y0213583
X0145866Y0214567
X0149803Y0219488
Y0225394
X0125984
Y0219488
X0129921Y0214567
X0134843Y0209646
X0140945
Y0184055
X0134843
X0129921Y0179134
X0125984Y0174213
Y0168307
X0149803
Y0174213
X0145866Y0179134
X0149213Y0122047
X0149311Y0114961
X0126279
X0126378Y0122047
X0070472
X0070571Y0114961
X0047539
X0047638Y0122047
X0047244Y016939
Y0175295
X0051181Y0181201
X0056102Y0184153
X0062008
X0066929Y0181201
X0070866Y0175295
Y016939
X0066929Y0211811
X0062008Y0208858
X0056102
X0051181Y0211811
X0047244Y0217717
Y0223622
X0070866
Y0217717
X0070571Y0272441
X0070472Y0279528
X0047638
X0047539Y0272441
X0047244Y0326772
Y0332677
X0051181Y0338583
X0056102Y0341535
X0062008
X0066929Y0338583
X0070866Y0332677
Y0326772
X0125984Y0325787
Y0331693
X0129921Y0336614
X0134843Y0341535
X0140945
X0145866Y0336614
X0149803Y0331693
Y0325787
X0149213Y0279528
X0149311Y0272441
X0126279
X0126378Y0279528
X0205118
X020502Y0272441
X0228051
X0227953Y0279528
X0228491Y0325787
X0226523Y0331693
X022357Y0336614
X0219633Y0341535
X0213583
X0209646Y0336614
X0206693Y0331693
X0204724Y0325787
X0284941Y0326279
X0287205Y033189
X0289764Y0337795
X0295177Y0341831
X0300984Y0337795
X0303543Y033189
X0305807Y0326279
X0306693Y0279528
X0306791Y0272441
X028376
X0283858Y0279528
X0374311Y0284252
X037441Y0291339
X037441Y0338484
Y0345079
X0376378Y0350492
X038189Y0353642
X0387402Y0350492
X037441Y0236319
X038937
X0433465Y0236319
X0448425
X049252Y0236319
X050748
X0507579Y0284252
X050748Y0291339
X049252
X0492421Y0284252
X0448524
X0448425Y0291339
X0433465
X0433366Y0284252
X0389469
X038937Y0291339
Y0338484
Y0345079
X0433465Y0345079
Y0338484
X0435433Y0350492
X0440945Y0353642
X0446457Y0350492
X0448425Y0345079
Y0338484
X049252Y0338484
Y0345079
X0494488Y0350492
X05Y0353642
X0505512Y0350492
X050748Y0345079
Y0338484
X0551575
X0552756Y0344882
X0553937Y0350394
X0559055Y0353642
X0564173Y0350787
X0565354Y0344882
X0566535Y0338484
X0566535Y0291339
X0566634Y0284252
X0551476
X0551575Y0291339
X0551575Y0236319
X0566535
M30
